<?xml version="1.0" encoding="utf-8"?>
<svg xmlns="http://www.w3.org/2000/svg" viewBox="0 0 500 429" xmlns:bx="https://boxy-svg.com"><defs><bx:grid x="13.159" y="107.81" width="100" height="100"/><bx:export><bx:file format="svg"/></bx:export></defs><path style="stroke: currentColor; stroke-linecap: round; stroke-width: 24px; fill: none;" d="M 13.159 117.572 L 317.897 117.572 C 353.079 117.572 375.068 76.673 357.476 43.954 C 339.885 11.235 295.908 11.235 278.317 43.954 C 276.92 46.553 275.747 49.284 274.815 52.113"/><path style="stroke: currentColor; stroke-linecap: round; stroke-width: 24px; fill: none;" d="M 29.286 207.81 L 431.664 207.81 C 472.601 207.81 498.186 163.495 477.718 128.043 C 457.249 92.591 406.079 92.591 385.61 128.043 C 380.332 137.185 377.894 147.692 378.607 158.225"/><path style="stroke: currentColor; stroke-linecap: round; stroke-width: 24px; fill: none;" d="M 17.828 288.696 L 386.672 288.696 C 432.519 288.696 461.173 338.327 438.25 378.031 C 415.326 417.736 358.018 417.736 335.094 378.031 C 332.635 373.772 330.713 369.225 329.372 364.493"/></svg>